# xmcd
#
# Track frame offsets:
#	150
#	19935
#	40173
#	63840
#	78260
#	90413
#	101920
#	124370
#	142353
#	160243
#	172168
#	185145
#	192853
#	204853
#
# Disc length: 2943 seconds
#
# Revision: 1
# Processed by: cddbd v1.4PL0 Copyright (c) Steve Scherf et al.
# Submitted via: audiograbber 1.81.03
#
DISCID=c70b7d0e
DTITLE=Verzamel - 'n muzikaal rondje Groningen
DYEAR=1900
DGENRE=Folk-Rock
TTITLE0=Safari Joe - Bij de zee
TTITLE1=NV Barré - La Cantina
TTITLE2=NV Barré - Lellebel
TTITLE3=NV Barré - Net niet helemaal
TTITLE4=Pieterburenoverlast - Broezen
TTITLE5=Pieterburenoverlast - Volkslied van Pieterburen
TTITLE6=Pieterburenoverlast - Reus van de weg
TTITLE7=Safari in Pieterburen - Zomer op Ameland
TTITLE8=Arie and Aaltje and Juffrouw de Boer - Takkwarium
TTITLE9=Arie and Aaltje and Juffrouw de Boer - Huwelijkstrouw
TTITLE10=Arie and Aaltje and Juffrouw de Boer - Er gaat niets boven Groningen
TTITLE11=De Trevira's - Marina
TTITLE12=Hilde Kor - Bergvagebonden
TTITLE13=Hilde Kor - Het Kufsteinlied
EXTD=
EXTT0=
EXTT1=
EXTT2=
EXTT3=
EXTT4=
EXTT5=
EXTT6=
EXTT7=
EXTT8=
EXTT9=
EXTT10=
EXTT11=
EXTT12=
EXTT13=
PLAYORDER=
